<svg width="512" height="512" viewBox="0 0 512 512" fill="none" xmlns="http://www.w3.org/2000/svg">
<g clip-path="url(#clip0_67_2)">
<circle cx="256" cy="256" r="256" fill="#252525"/>
<path d="M237.452 236.88C237.452 272.421 229.111 298.533 212.428 315.216C195.745 331.899 169.996 340.24 135.18 340.24C100.727 340.24 5.15734 338.427 -33.648 334.8L-38 293C-9.712 294.813 133.113 293 162.852 293C171.193 293 177.721 293.123 182.436 288.408C187.513 283.331 190.052 276.621 190.052 268.28V236.88V-15.88L68.812 1.5V-46H237.452V236.88Z" fill="white"/>
<path d="M198.5 224.88C198.5 260.421 190.159 286.533 173.476 303.216C156.793 319.899 121.242 315.94 86.4259 315.94C51.9725 315.94 8.36462 319.567 -30.4407 315.94V278C-2.15272 279.813 85.7206 281 115.459 281C123.801 281 130.329 281.123 135.043 276.408C140.121 271.331 142.659 264.621 142.659 256.28L143 224.88V173.5H195.852L198.5 224.88Z" fill="white"/>
<path d="M522.92 489.33C454.979 495.423 398.616 498.47 353.83 498.47C323.973 498.47 302.037 491.463 288.022 477.448C274.007 463.433 267 441.497 267 411.64V265.4C267 233.41 274.16 210.255 288.479 195.936C303.103 181.312 326.41 174 358.4 174H522.92V237.98H376.68C358.4 237.98 349.26 247.12 349.26 265.4V411.64C349.26 418.647 351.24 424.284 355.201 428.549C359.466 432.51 364.798 434.49 371.196 434.49C377.594 434.49 384.601 434.49 392.218 434.49C399.835 434.185 407.756 433.881 415.982 433.576C424.208 433.271 432.434 432.967 440.66 432.662C449.191 432.357 460.006 431.748 473.107 430.834C486.512 429.92 503.117 428.854 522.92 427.635V489.33Z" fill="white"/>
<path d="M5 27H143V174H5V27Z" fill="white"/>
</g>
<rect x="1.5" y="1.5" width="509" height="509" rx="254.5" stroke="#252525" stroke-width="3"/>
<rect x="1.5" y="1.5" width="509" height="509" rx="254.5" stroke="white" stroke-width="3"/>
<defs>
<clipPath id="clip0_67_2">
<rect width="512" height="512" rx="256" fill="white"/>
</clipPath>
</defs>
</svg>
